<svg id="Layer_1" data-name="Layer 1" xmlns="http://www.w3.org/2000/svg" viewBox="0 0 32 32"><defs><style>.cls-1{fill:#1b295e;}.cls-2{fill:#fff;}</style></defs><circle class="cls-1" cx="16" cy="16" r="16"/><path class="cls-2" d="M21,7.19A3.8,3.8,0,0,0,17.21,11v4.21c-.4,0-.8,0-1.21,0s-.81,0-1.21,0V11a3.81,3.81,0,0,0-7.62,0V21.05a3.81,3.81,0,0,0,7.62,0V16.84c.4,0,.8,0,1.21,0s.81,0,1.21,0v4.29a3.81,3.81,0,0,0,7.62,0V11A3.81,3.81,0,0,0,21,7.19ZM11,8.75A2.24,2.24,0,0,1,13.21,11v4.47a12.9,12.9,0,0,0-3.24.91,5.84,5.84,0,0,0-1.25.75V11A2.25,2.25,0,0,1,11,8.75Zm2.26,12.3a2.25,2.25,0,1,1-4.49,0V20a2.71,2.71,0,0,1,1.89-2.26A10.87,10.87,0,0,1,13.23,17ZM21,23.29A2.25,2.25,0,0,1,18.77,21V16.58A12.9,12.9,0,0,0,22,15.67a6.28,6.28,0,0,0,1.25-.75V21A2.25,2.25,0,0,1,21,23.29Zm.35-9a10.87,10.87,0,0,1-2.61.77V11a2.25,2.25,0,0,1,4.49,0v1A2.66,2.66,0,0,1,21.37,14.25Z"/></svg>