<svg id="Layer_1" data-name="Layer 1" xmlns="http://www.w3.org/2000/svg" viewBox="0 0 32 32"><defs><style>.cls-1{fill:#ff1a54;}.cls-2{fill:#c42250;}.cls-3{fill:#e62a57;}</style></defs><g id="Layer_2" data-name="Layer 2"><path class="cls-1" d="M16,32a16,16,0,1,1,6.22-1.26A16,16,0,0,1,16,32ZM16,1.13A14.88,14.88,0,1,0,26.51,5.48,14.88,14.88,0,0,0,16,1.13Z"/></g><g id="Layer_4" data-name="Layer 4"><path class="cls-1" d="M24.5,10.78l-1.19-.43a2.61,2.61,0,0,0-.74-.2,1.84,1.84,0,0,0-.65.13l-.32.07c-.14.09-.28.18-.43.26a14.63,14.63,0,0,0-2,3.79.16.16,0,0,1-.08.1l-.11.27-.13.33-.24.63c-.16.43-.32.86-.5,1.29a23.27,23.27,0,0,1-1.19,2.88,1.63,1.63,0,0,1-.43.51.7.7,0,0,1-.64.11,1.06,1.06,0,0,1-.4-.36,18.45,18.45,0,0,1-2.2-4.9l-.11-.3c-.2-.56-.41-1.12-.62-1.68a.21.21,0,0,1-.27-.14h0c-.11-.37-.19-.74-.33-1.1s-.4-.71-.58-1.07a1.25,1.25,0,0,0-.37-.54,7.13,7.13,0,0,0-1-.49,1.77,1.77,0,0,0-1.18-.11,2.92,2.92,0,0,0-.79.3.15.15,0,0,1,0,.18,3.84,3.84,0,0,1-.88,1.2,5.27,5.27,0,0,0-.57.68l1.61.89s.42-1.27,1.14-1.3a1.12,1.12,0,0,1,.66.75l1.16,2.92,1.81,4.71a3.57,3.57,0,0,0,3.41,2.45s2.35-.07,3.22-3.29l2.21-6.1.45-1a.71.71,0,0,1,.91-.43.69.69,0,0,1,.39.34l.08.19,1.53-.82a6.31,6.31,0,0,0-.64-.73Z"/><polygon class="cls-2" points="12.22 18.21 13.44 15.75 14.1 17.57 12.73 19.58 12.22 18.21"/><polygon class="cls-2" points="19.93 18.46 18.58 15.82 17.83 17.77 19.35 19.93 19.93 18.46"/><path class="cls-3" d="M12.18,13.25l.17.2h0a.11.11,0,0,0,.08,0,.12.12,0,0,0,.07-.11v-.09h0a.11.11,0,0,0,0-.08.22.22,0,0,0-.05-.08h-.17a.11.11,0,0,0,0,.08h0v.05h0v.08h0a.14.14,0,0,1,0,.09h0l.2-.08-.17-.2h-.17a.11.11,0,0,0,0,.08h0v.05Z"/><path class="cls-3" d="M11.18,15.54l.08.16h.09v-.07h0a.06.06,0,0,0,0-.06l-.07-.16h-.06s-.05,0-.05.07h0v.06Z"/><path class="cls-3" d="M19.59,13.14l-.12.17h.16l.09-.17a.12.12,0,0,0,0-.14h-.09a.22.22,0,0,0-.07.09v.1l-.07.17a.14.14,0,0,0,0,.09.05.05,0,0,0,.06.05h.09s.05,0,.05-.07a.79.79,0,0,1,.08-.23h0L19.62,13l-.08.14h0v.13a.24.24,0,0,0,.06.08h.08a.13.13,0,0,0,.07-.05l.12-.17a.14.14,0,0,0,0-.09.06.06,0,0,0-.05-.06h-.09Z"/><path class="cls-1" d="M16.07,11.81V9.63s-1.46-.25-2.76,1.76l-.39.81-1,2-1.21,2.41L9.64,18.74c-.07.14-.14.29-.22.43A4.92,4.92,0,0,1,9,20a2.19,2.19,0,0,1-2.26.47,1.78,1.78,0,0,1-1-2.3c0-.09.08-.18.13-.27l.48-1,1-2,.83-1.66a3.87,3.87,0,0,1,.78-1.17.61.61,0,0,1,.56-.15.7.7,0,0,1,.34.27,4.06,4.06,0,0,1,.44,1l.41,1,.53,1.33L12.46,13l-.7-1.78A2.49,2.49,0,0,0,10.2,9.82a2.88,2.88,0,0,0-1.88,0,2.67,2.67,0,0,0-.81.48,2.44,2.44,0,0,0-.55.79L6.2,12.56l-1,2L4.26,16.4a6.73,6.73,0,0,0-.63,1.49,4.47,4.47,0,0,0,0,1.63A4.08,4.08,0,0,0,5.26,22.2a3.71,3.71,0,0,0,2.19.61,3.87,3.87,0,0,0,3.54-2l1.22-2.55,2.94-5.83a1,1,0,0,1,.92-.63Z"/><path class="cls-1" d="M15.92,11.81V9.63s1.45-.25,2.75,1.76l.41.81,1,2,1.21,2.41,1.06,2.13c.07.14.14.29.22.43A5.85,5.85,0,0,0,23,20a2.19,2.19,0,0,0,2.25.47,1.79,1.79,0,0,0,1-2.31,2.1,2.1,0,0,0-.13-.26l-.48-1-1-2-.84-1.66A3.58,3.58,0,0,0,23.12,12a.61.61,0,0,0-.56-.15.65.65,0,0,0-.34.27,4.06,4.06,0,0,0-.44,1l-.42,1-.53,1.33L19.58,13l.69-1.78A2.61,2.61,0,0,1,21.84,9.8a2.85,2.85,0,0,1,1.87,0,2.6,2.6,0,0,1,.82.48,2.3,2.3,0,0,1,.55.79l.75,1.47,1,2,.91,1.76a6.73,6.73,0,0,1,.63,1.49,4.19,4.19,0,0,1-1.63,4.32,3.76,3.76,0,0,1-2.19.6,3.88,3.88,0,0,1-3.54-2l-1.22-2.55-2.94-5.83a1,1,0,0,0-.93-.63Z"/></g></svg>