<svg id="Layer_1" data-name="Layer 1" xmlns="http://www.w3.org/2000/svg" xmlns:xlink="http://www.w3.org/1999/xlink" viewBox="0 0 32 32"><defs><style>.cls-1{fill:none;}.cls-2{fill:#fff;}.cls-3{clip-path:url(#clip-path);}.cls-4{fill:#8247e5;}</style><clipPath id="clip-path"><rect class="cls-1" x="6.48" y="7.62" width="19.21" height="16.76"/></clipPath></defs><circle class="cls-2" cx="16" cy="16" r="16"/><g class="cls-3"><path class="cls-4" d="M21,12.72a1.27,1.27,0,0,0-1.2,0L17,14.37l-1.9,1.05-2.75,1.66a1.27,1.27,0,0,1-1.2,0L9,15.77a1.22,1.22,0,0,1-.6-1v-2.5A1.23,1.23,0,0,1,9,11.17l2.15-1.25a1.27,1.27,0,0,1,1.2,0l2.15,1.3a1.22,1.22,0,0,1,.6,1v1.65l1.9-1.1v-1.7a1.23,1.23,0,0,0-.6-1l-4-2.35a1.27,1.27,0,0,0-1.2,0l-4.1,2.4a1.1,1.1,0,0,0-.6,1v4.7a1.24,1.24,0,0,0,.6,1.06l4.05,2.35a1.27,1.27,0,0,0,1.2,0l2.75-1.6,1.9-1.1,2.76-1.61a1.27,1.27,0,0,1,1.2,0l2.15,1.26a1.22,1.22,0,0,1,.6,1.05v2.5a1.23,1.23,0,0,1-.6,1.05L21,22a1.27,1.27,0,0,1-1.2,0l-2.16-1.25a1.22,1.22,0,0,1-.6-1.05v-1.6l-1.9,1.1v1.65a1.23,1.23,0,0,0,.6,1.05l4.06,2.35a1.27,1.27,0,0,0,1.2,0L25,21.93a1.22,1.22,0,0,0,.6-1.05V16.13a1.24,1.24,0,0,0-.6-1.06Z"/></g></svg>