<svg id="Layer_1" data-name="Layer 1" xmlns="http://www.w3.org/2000/svg" viewBox="0 0 32 32"><defs><style>.cls-1{fill:#fff;}</style></defs><circle cx="16" cy="16" r="16"/><path d="M8.26,24.29H22.71v-1.7H10.25V9.39H22.72V7.71H8.26ZM18.46,18a3.16,3.16,0,0,0,1.16,2.23,5.39,5.39,0,0,0,5.86.11,2.85,2.85,0,0,0,1.13-2.8,2.56,2.56,0,0,0-1.91-2.22A13.68,13.68,0,0,0,23.29,15a14.28,14.28,0,0,1-1.88-.43A.92.92,0,0,1,21.19,13a2.32,2.32,0,0,1,3,.47.66.66,0,0,0,.39.3c.54,0,1.09,0,1.63,0A2.74,2.74,0,0,0,25,11.54a4.93,4.93,0,0,0-5,0,2.67,2.67,0,0,0-1.23,2,2.63,2.63,0,0,0,2.44,3c.82.16,1.65.25,2.44.47a1.16,1.16,0,0,1,.55,2c-.77.71-3.19.64-3.67-.6a.73.73,0,0,0-.54-.36A15,15,0,0,0,18.46,18Z"/><path class="cls-1" d="M8.26,24.29V7.71H22.72V9.39H10.25v13.2H22.71v1.7Z"/><path class="cls-1" d="M18.46,18a15,15,0,0,1,1.52,0,.73.73,0,0,1,.54.36c.48,1.24,2.9,1.31,3.67.6a1.16,1.16,0,0,0-.55-2c-.79-.22-1.62-.31-2.44-.47a2.63,2.63,0,0,1-2.44-3,2.67,2.67,0,0,1,1.23-2,4.93,4.93,0,0,1,5,0,2.74,2.74,0,0,1,1.25,2.2c-.54,0-1.09,0-1.63,0a.66.66,0,0,1-.39-.3,2.32,2.32,0,0,0-3-.47.92.92,0,0,0,.22,1.65,14.28,14.28,0,0,0,1.88.43,13.68,13.68,0,0,1,1.41.32,2.56,2.56,0,0,1,1.91,2.22,2.85,2.85,0,0,1-1.13,2.8,5.39,5.39,0,0,1-5.86-.11A3.16,3.16,0,0,1,18.46,18Z"/></svg>