<svg id="Layer_1" data-name="Layer 1" xmlns="http://www.w3.org/2000/svg" viewBox="0 0 32 32"><defs><style>.cls-1{fill:#0033ad;}.cls-2{fill:#fff;}</style></defs><circle class="cls-1" cx="16" cy="16" r="16"/><path class="cls-2" d="M15.75,6.53a.58.58,0,0,1,.76.76.58.58,0,1,1-.76-.76Zm-4.82.52a.45.45,0,1,1-.06.84A.46.46,0,0,1,10.93,7.05Zm9.87.85a.45.45,0,0,1-.08-.85c.32-.16.61.13.65.43A.48.48,0,0,1,20.8,7.9ZM12,9.1a.7.7,0,1,1-.1,1.16A.71.71,0,0,1,12,9.1Zm7,.31a.71.71,0,0,1,1.26,0,.71.71,0,1,1-1.26,0Zm-3.8,1A.85.85,0,0,1,16,9.56a.9.9,0,0,1,.71.46.82.82,0,0,1-.38,1.12,1,1,0,0,1-.61,0A.88.88,0,0,1,15.17,10.37ZM8,11a.57.57,0,0,1,.81.66A.57.57,0,1,1,8,11Zm15.4,0a.57.57,0,1,1,.06,1A.57.57,0,0,1,23.4,11Zm-6.22.81a1.39,1.39,0,1,1-.86,1.8A1.4,1.4,0,0,1,17.18,11.84Zm-3.41.07a1.39,1.39,0,1,1-.65,1.88A1.39,1.39,0,0,1,13.77,11.91Zm-3.42,1.17a.87.87,0,0,1,.83-.72.93.93,0,0,1,.82.82.88.88,0,0,1-.81.84A.81.81,0,0,1,10.35,13.08Zm10.1-.63a.82.82,0,1,1-.06,1.42A.83.83,0,0,1,20.45,12.45Zm-8.07,2.2a1.39,1.39,0,1,1-.9,1.94A1.39,1.39,0,0,1,12.38,14.65Zm6.48,0a1.4,1.4,0,0,1,1.57.59,1.39,1.39,0,0,1-.39,1.9,1.39,1.39,0,1,1-1.18-2.49Zm-10.33.69a.7.7,0,1,1-.25,1.19A.71.71,0,0,1,8.53,15.33Zm14,.75a.79.79,0,0,1,.74-.83.74.74,0,0,1,.67.72.7.7,0,0,1-1,.62A.93.93,0,0,1,22.53,16.08ZM6,15.59a.45.45,0,1,1-.18.69A.45.45,0,0,1,6,15.59Zm19.6,0a.44.44,0,1,1,.22.82A.44.44,0,0,1,25.59,15.58ZM14.06,17.45a1.42,1.42,0,0,1,1.71,1.32,1.4,1.4,0,1,1-2.79,0A1.42,1.42,0,0,1,14.06,17.45Zm3.24,0a1.39,1.39,0,1,1,.11,2.72,1.39,1.39,0,0,1-.11-2.72ZM11.06,18a.82.82,0,1,1-.51,1.35A.83.83,0,0,1,11.06,18Zm9.5,0a.81.81,0,0,1,1.1.78.82.82,0,1,1-1.1-.78Zm2.65,2.66a.57.57,0,0,1,.58-.8.73.73,0,0,1,.49.3c0,.22.07.48-.12.65A.57.57,0,0,1,23.21,20.66ZM8,20a.58.58,0,1,1,0,1A.58.58,0,0,1,8,20Zm7.67.84a.82.82,0,1,1-.15,1.46A.83.83,0,0,1,15.66,20.8Zm-3.55.83a.69.69,0,0,1,1,.65.68.68,0,0,1-.77.68.69.69,0,0,1-.2-1.33Zm7.19,0a.7.7,0,1,1-.08,1.17A.71.71,0,0,1,19.3,21.64Zm1.25,3.09a.5.5,0,0,1,.36-.73c.25.05.53.25.47.55A.46.46,0,0,1,20.55,24.73Zm-9.93-.26c.08-.24.27-.47.55-.41a.45.45,0,0,1,.17.83C11,25.11,10.65,24.81,10.62,24.47Zm4.79.27a.57.57,0,0,1,.83-.33c.2.08.26.3.31.49s-.05.2-.07.3a.66.66,0,0,1-.49.28A.57.57,0,0,1,15.41,24.74Z"/></svg>