<?xml version="1.0" encoding="utf-8"?>
<!-- Generator: Adobe Illustrator 26.0.1, SVG Export Plug-In . SVG Version: 6.00 Build 0)  -->
<svg version="1.1" id="logo" xmlns="http://www.w3.org/2000/svg" xmlns:xlink="http://www.w3.org/1999/xlink" x="0px" y="0px"
	 viewBox="0 0 1035.3 300" style="enable-background:new 0 0 1035.3 300;" xml:space="preserve">
<style type="text/css">
	.st0{fill:#FFFFFF;}
</style>
<path class="st0" d="M201.2,60c-21.4,0-38.8,17.3-38.8,38.7v42.9c-4,0.3-8.1,0.4-12.3,0.4s-8.3,0.2-12.3,0.4V98.7
	c-0.3-21.4-18-38.6-39.5-38.2c-21,0.3-37.9,17.2-38.2,38.2v102.6c0.3,21.4,18,38.6,39.5,38.2c21-0.3,37.9-17.2,38.2-38.2v-42.9
	c4-0.3,8.1-0.4,12.3-0.4s8.3-0.2,12.3-0.4v43.8c0.3,21.4,18,38.6,39.5,38.2c21-0.3,37.9-17.2,38.2-38.2V98.7
	C239.9,77.3,222.6,60,201.2,60z M98.8,75.9c12.6,0,22.9,10.2,22.9,22.8v45.5c-11.4,1.6-22.5,4.8-33,9.3c-4.6,2-8.9,4.6-12.8,7.6
	V98.7C76,86.1,86.2,75.9,98.8,75.9z M121.8,201.3c0,12.7-10.3,22.9-22.9,22.9c-12.7,0-22.9-10.3-22.9-22.9V191
	c0-9.1,7.2-17.7,19.3-23.1c8.5-3.7,17.4-6.3,26.6-7.8L121.8,201.3z M201.2,224.1c-12.6,0-22.9-10.2-22.9-22.9v-45.5
	c11.4-1.6,22.5-4.8,33-9.3c4.6-2,8.9-4.6,12.8-7.6v62.4C224,213.9,213.8,224.1,201.2,224.1L201.2,224.1z M204.8,132
	c-8.5,3.7-17.4,6.3-26.6,7.8V98.7c0-12.7,10.3-22.9,22.9-22.9c12.7,0,22.9,10.3,22.9,22.9V109C224.1,118.1,216.9,126.7,204.8,132z"
	/>
<path class="st0" d="M759.1,122.2c-24.2,0-43.8,19.7-43.8,43.9c0,24.2,19.7,43.8,43.9,43.8c24.2,0,43.8-19.6,43.8-43.8l0,0
	C803,141.8,783.4,122.2,759.1,122.2C759.1,122.2,759.1,122.2,759.1,122.2z M788.7,166c0,16.4-13.3,29.6-29.6,29.6
	c-16.4,0-29.6-13.3-29.6-29.6c0-16.4,13.3-29.6,29.7-29.6C775.5,136.4,788.7,149.7,788.7,166L788.7,166z"/>
<path class="st0" d="M495.5,122.5c-3.9,0-7.1,3.2-7.1,7.1c0,0,0,0,0,0v4.2c-17.8-16.4-45.5-15.3-62,2.5s-15.3,45.5,2.5,62
	c16.8,15.5,42.7,15.5,59.4,0v4.1c-0.1,3.9,2.9,7.2,6.8,7.4c3.9,0.1,7.2-2.9,7.4-6.8c0-0.2,0-0.4,0-0.5v-72.8
	C502.6,125.7,499.4,122.5,495.5,122.5z M488.4,166.1c0,16.4-13.3,29.6-29.6,29.6l0,0c-16.4,0-29.6-13.3-29.6-29.6
	c0-16.4,13.3-29.6,29.6-29.6C475.1,136.4,488.4,149.6,488.4,166.1L488.4,166.1z"/>
<path class="st0" d="M571.8,129.3c0,3.9-3.2,7.1-7.1,7.1h-0.9c-16.3,0-29.6,13.2-29.6,29.6l0,0c-0.4,1.5-0.2,24-0.1,37.3
	c-0.5,3.9-4.1,6.6-7.9,6.1c0,0,0,0-0.1,0H526c-3.5-0.6-6.1-3.8-6-7.4v-72.4c0-3.9,3.2-7.1,7.1-7.1h0.4c3.9,0.3,6.8,3.6,6.7,7.5v3.8
	c8.1-7.5,18.6-11.6,29.6-11.6h0.9C568.6,122.2,571.8,125.4,571.8,129.3L571.8,129.3L571.8,129.3z"/>
<path class="st0" d="M887.5,159v43.5c0,3.9-3.2,7.1-7.1,7.1l0,0c-3.9,0-7.1-3.2-7.1-7.1v-7.1l0,0V159c0-12.3-10-22.2-22.2-22.2
	c-0.5,0-1,0-1.5,0.1c-11.8,0.8-20.7,11.1-20.7,22.9v8.6l0,0v27l0,0v7.1c0,3.9-3.2,7.1-7.1,7.1c-3.9,0-7.1-3.2-7.1-7.1v-72.9
	c0-3.9,3.2-7.1,7.1-7.1c3.9,0,7.1,3.2,7.1,7.1v0.7c5.8-4.7,13-7.4,20.4-7.7c20.1-1,37.1,14.5,38.2,34.5
	C887.5,157.7,887.5,158.3,887.5,159z"/>
<path class="st0" d="M401.2,96.9v106.2c0,3.9-3.1,7-7,7s-7-3.1-7-7v-47.9H314v48c0,3.9-3.1,7-7,7s-7-3.1-7-7V96.9c0-3.9,3.1-7,7-7
	s7,3.1,7,7l0,0V143h73.1V96.9c0-3.9,3.1-7,7-7s7,3.1,7,7l0,0H401.2z"/>
<path class="st0" d="M704.7,162.3L704.7,162.3v40.1c0,3.9-3.2,7.1-7.1,7.1l0,0c-3.9,0-7.1-3.2-7.1-7.1c0,0,0,0,0,0l0,0v-36.6l0,0
	v-9.6c0.3-11-8.4-20-19.4-20.3c-11-0.3-20,8.4-20.3,19.4c0,0.3,0,0.6,0,0.9l0,0v46.2c0.1,3.9-2.9,7.2-6.8,7.4
	c-3.9,0.1-7.2-2.9-7.4-6.8c0-0.2,0-0.4,0-0.5v-36.6l0,0v-9.6l0,0c0.3-11-8.4-20-19.4-20.3c-11-0.3-20,8.4-20.3,19.4l0,0
	c0,0.3,0,0.6,0,0.9v46.2c0.1,3.9-2.9,7.2-6.8,7.4c-3.9,0.1-7.2-2.9-7.4-6.8c0-0.2,0-0.4,0-0.5v-72.8c0-3.9,3.1-7.1,7-7.2
	c3.6,0,6.6,2.6,7.1,6.2c14.9-10.8,35.7-7.7,46.9,6.9c11.4-14.9,32.8-17.7,47.7-6.3c8.4,6.5,13.4,16.5,13.3,27.1L704.7,162.3z"/>
<path class="st0" d="M974.3,132.8l-47.9,103.6c-2.1,3.4-6.5,4.5-9.9,2.5c-2.9-1.7-4.2-5.3-3.1-8.5l12.9-27.9l-32.3-69.7
	c-2.1-3.4-1-7.9,2.4-9.9s7.9-1,9.9,2.4c0,0,0,0.1,0.1,0.1c0.3,0.4,0.5,0.9,0.6,1.3l27.1,58.6l27.1-58.6c1.3-3.8,5.3-5.8,9.1-4.6
	c3.8,1.3,5.8,5.3,4.6,9.1C974.8,131.8,974.6,132.3,974.3,132.8L974.3,132.8z"/>
</svg>
