<?xml version="1.0" encoding="UTF-8"?><svg id="Layer_1" xmlns="http://www.w3.org/2000/svg" viewBox="0 0 250 250"><defs><style>.cls-1,.cls-2{fill:#fff;}.cls-2{opacity:.25;}</style></defs><path class="cls-2" d="M60.61,123.27h-23.1c0,48.32,39.17,87.48,87.48,87.48v-23.1c-35.56,0-64.39-28.83-64.39-64.39Z"/><path class="cls-2" d="M189.39,126.73h23.1c0-48.32-39.17-87.48-87.48-87.48v23.1c35.56,0,64.39,28.83,64.39,64.39Z"/><path class="cls-1" d="M125,62.34v-23.1c-48.32,0-87.48,39.17-87.48,87.48h23.1c0-35.56,28.83-64.39,64.39-64.39Z"/><path class="cls-1" d="M125,187.66v23.1c48.32,0,87.48-39.17,87.48-87.48h-23.1c0,35.56-28.83,64.39-64.39,64.39Z"/></svg>